<?xml version="1.0" encoding="utf-8"?>
<!-- Generator: Adobe Illustrator 18.0.0, SVG Export Plug-In . SVG Version: 6.00 Build 0)  -->
<!DOCTYPE svg PUBLIC "-//W3C//DTD SVG 1.1//EN" "http://www.w3.org/Graphics/SVG/1.1/DTD/svg11.dtd">
<svg version="1.1" id="Layer_1" xmlns="http://www.w3.org/2000/svg" xmlns:xlink="http://www.w3.org/1999/xlink" x="0px" y="0px"
	 viewBox="0 0 1400 980" enable-background="new 0 0 1400 980" xml:space="preserve">
<g>
	<g>
		<rect fill="#354A5E" width="466.7" height="490"/>
		<rect x="466.7" fill="#EAA035" width="466.7" height="490"/>
		<rect x="933.3" y="490" fill="#2D84AB" width="466.7" height="490"/>
		<rect x="933.3" fill="#CB473F" width="466.7" height="490"/>
		<rect x="466.7" y="490" fill="#66432D" width="466.7" height="490"/>
		<rect y="490" fill="#0EA988" width="466.7" height="490"/>
	</g>
	<g>
		<g>
			<path fill="#E84F40" d="M124.1,136.6c-8.1,0-14.6,6.6-14.6,14.6V334c0,8.1,6.6,14.6,14.6,14.6H135v-212H124.1z"/>
			<path fill="#E84F40" d="M239.9,136.6H165v212h74.9c8.1,0,14.6-6.6,14.6-14.6V151.3C254.5,143.2,247.9,136.6,239.9,136.6z"/>
			<rect x="135" y="136.6" fill="#1A1A1A" width="30" height="212"/>
		</g>
		<g>
			<polygon fill="#FFCD85" points="274.3,211.3 274.3,165.3 254.5,165.3 254.5,209.1 304.4,259 			"/>
			<path fill="#FFE0B1" d="M341.7,247.4l-34.3-64.3c-5.8-10.9-17.2-17.8-29.6-17.8h-3.5v46l30,47.7l-49.9-49.9l-15.2-15.2
				c-9.6-9.6-25.1-9.6-34.6,0l0,0c-9.6,9.6-9.6,25.1,0,34.6l34,34v33.2c0,19.1,13.8,35,32,38.2V374h79.2v-39.3v-11.3v-43.4
				C349.8,268.5,347.1,257.4,341.7,247.4z"/>
			<path fill="#FFECD5" d="M239.1,207.1l-21.4,21.4l-7-7c-5.9-5.9-5.9-15.5,0-21.4l0,0c5.9-5.9,15.5-5.9,21.4,0L239.1,207.1z"/>
		</g>
		<path fill="#FFFFFF" d="M178.9,205h-2.9c-0.9,0-1.6,0.7-1.6,1.6v127.4c0,0.9,0.7,1.6,1.6,1.6h2.9c0.9,0,1.6-0.7,1.6-1.6V206.6
			C180.5,205.7,179.8,205,178.9,205z"/>
		<path fill="#FFFFFF" d="M192.1,233.3h-2.9c-0.9,0-1.6,0.7-1.6,1.6v99.1c0,0.9,0.7,1.6,1.6,1.6h2.9c0.9,0,1.6-0.7,1.6-1.6v-99.1
			C193.7,234,193,233.3,192.1,233.3z"/>
		<path fill="#FFFFFF" d="M204.7,263.9h-2.9c-0.9,0-1.6,0.7-1.6,1.6v68.4c0,0.9,0.7,1.6,1.6,1.6h2.9c0.9,0,1.6-0.7,1.6-1.6v-68.4
			C206.2,264.6,205.5,263.9,204.7,263.9z"/>
	</g>
	<g>
		<path fill="#395D64" d="M761.7,81.1H629.6c-15.5,0-28.1,12.6-28.1,28.1v235.2c0,15.5,12.6,28.1,28.1,28.1h132.1
			c15.5,0,28.1-12.6,28.1-28.1V109.2C789.8,93.7,777.2,81.1,761.7,81.1z"/>
		<path fill="#486E77" d="M761.7,127.1H629.6c-3.4,0-6.1,2.7-6.1,6.1v211.2c0,3.4,2.7,6.1,6.1,6.1h132.1c3.4,0,6.1-2.7,6.1-6.1
			V133.2C767.8,129.8,765,127.1,761.7,127.1z"/>
		<rect x="641.4" y="146.3" fill="#BECB35" width="108.5" height="73.7"/>
		<path fill="#253338" d="M756.1,101h-121c-1.9,0-3.5,1.6-3.5,3.5s1.6,3.5,3.5,3.5h121c1.9,0,3.5-1.6,3.5-3.5S758.1,101,756.1,101z"
			/>
		<g>
			<path fill="#F5F4DF" d="M668.9,236h-22.6c-2.7,0-4.9,2.2-4.9,4.9v10.7c0,2.7,2.2,4.9,4.9,4.9h22.6c2.7,0,4.9-2.2,4.9-4.9v-10.7
				C673.8,238.2,671.6,236,668.9,236z"/>
			<path fill="#F5F4DF" d="M707,236h-22.6c-2.7,0-4.9,2.2-4.9,4.9v10.7c0,2.7,2.2,4.9,4.9,4.9H707c2.7,0,4.9-2.2,4.9-4.9v-10.7
				C711.8,238.2,709.6,236,707,236z"/>
			<path fill="#F5F4DF" d="M745,236h-22.6c-2.7,0-4.9,2.2-4.9,4.9v10.7c0,2.7,2.2,4.9,4.9,4.9H745c2.7,0,4.9-2.2,4.9-4.9v-10.7
				C749.9,238.2,747.7,236,745,236z"/>
			<path fill="#F5F4DF" d="M668.9,262.2h-22.6c-2.7,0-4.9,2.2-4.9,4.9v10.7c0,2.7,2.2,4.9,4.9,4.9h22.6c2.7,0,4.9-2.2,4.9-4.9v-10.7
				C673.8,264.4,671.6,262.2,668.9,262.2z"/>
			<path fill="#F5F4DF" d="M707,262.2h-22.6c-2.7,0-4.9,2.2-4.9,4.9v10.7c0,2.7,2.2,4.9,4.9,4.9H707c2.7,0,4.9-2.2,4.9-4.9v-10.7
				C711.8,264.4,709.6,262.2,707,262.2z"/>
			<path fill="#F5F4DF" d="M745,262.2h-22.6c-2.7,0-4.9,2.2-4.9,4.9v10.7c0,2.7,2.2,4.9,4.9,4.9H745c2.7,0,4.9-2.2,4.9-4.9v-10.7
				C749.9,264.4,747.7,262.2,745,262.2z"/>
			<path fill="#F5F4DF" d="M668.9,288.5h-22.6c-2.7,0-4.9,2.2-4.9,4.9v10.7c0,2.7,2.2,4.9,4.9,4.9h22.6c2.7,0,4.9-2.2,4.9-4.9v-10.7
				C673.8,290.7,671.6,288.5,668.9,288.5z"/>
			<path fill="#F5F4DF" d="M707,288.5h-22.6c-2.7,0-4.9,2.2-4.9,4.9v10.7c0,2.7,2.2,4.9,4.9,4.9H707c2.7,0,4.9-2.2,4.9-4.9v-10.7
				C711.8,290.7,709.6,288.5,707,288.5z"/>
			<path fill="#F5F4DF" d="M745,288.5h-22.6c-2.7,0-4.9,2.2-4.9,4.9v10.7c0,2.7,2.2,4.9,4.9,4.9H745c2.7,0,4.9-2.2,4.9-4.9v-10.7
				C749.9,290.7,747.7,288.5,745,288.5z"/>
			<path fill="#7CC471" d="M668.9,314.8h-22.6c-2.7,0-4.9,2.2-4.9,4.9v10.7c0,2.7,2.2,4.9,4.9,4.9h22.6c2.7,0,4.9-2.2,4.9-4.9v-10.7
				C673.8,316.9,671.6,314.8,668.9,314.8z"/>
			<path fill="#FDD836" d="M707,314.8h-22.6c-2.7,0-4.9,2.2-4.9,4.9v10.7c0,2.7,2.2,4.9,4.9,4.9H707c2.7,0,4.9-2.2,4.9-4.9v-10.7
				C711.8,316.9,709.6,314.8,707,314.8z"/>
			<path fill="#EE7064" d="M745,314.8h-22.6c-2.7,0-4.9,2.2-4.9,4.9v10.7c0,2.7,2.2,4.9,4.9,4.9H745c2.7,0,4.9-2.2,4.9-4.9v-10.7
				C749.9,316.9,747.7,314.8,745,314.8z"/>
		</g>
		<g>
			<polygon fill="#253338" points="789.8,121.5 789.8,332.2 799,319.8 799,133.9 			"/>
			<path fill="#486E77" d="M801.3,137l-2.3-3.1v185.9l2.3-3.1c4.5-6,6.9-13.4,6.9-20.9V157.9C808.2,150.4,805.8,143.1,801.3,137z"/>
		</g>
	</g>
	<g>
		<g>
			<g>
				<path fill="#F9C12E" d="M187.9,780.2c-5.9,0-10.6,4.8-10.6,10.6v132.5c0,5.9,4.8,10.6,10.6,10.6h7.9V780.2H187.9z"/>
				<path fill="#F9C12E" d="M271.8,780.2h-54.3v153.7h54.3c5.9,0,10.6-4.8,10.6-10.6V790.8C282.4,784.9,277.7,780.2,271.8,780.2z"/>
				<rect x="195.8" y="780.2" fill="#1A1A1A" width="21.8" height="153.7"/>
			</g>
			<path fill="#FFFFFF" d="M227.6,829.8h-2.1c-0.6,0-1.1,0.5-1.1,1.1v92.4c0,0.6,0.5,1.1,1.1,1.1h2.1c0.6,0,1.1-0.5,1.1-1.1v-92.4
				C228.8,830.3,228.3,829.8,227.6,829.8z"/>
			<path fill="#FFFFFF" d="M237.2,850.3h-2.1c-0.6,0-1.1,0.5-1.1,1.1v71.9c0,0.6,0.5,1.1,1.1,1.1h2.1c0.6,0,1.1-0.5,1.1-1.1v-71.9
				C238.3,850.8,237.8,850.3,237.2,850.3z"/>
			<path fill="#FFFFFF" d="M246.3,872.5h-2.1c-0.6,0-1.1,0.5-1.1,1.1v49.6c0,0.6,0.5,1.1,1.1,1.1h2.1c0.6,0,1.1-0.5,1.1-1.1v-49.6
				C247.4,873,246.9,872.5,246.3,872.5z"/>
		</g>
		<g>
			<path fill="#395D64" d="M290.5,603.1H170.9c-14.1,0-25.5,11.4-25.5,25.5v213c0,14.1,11.4,25.5,25.5,25.5h119.6
				c14.1,0,25.5-11.4,25.5-25.5v-213C316,614.5,304.6,603.1,290.5,603.1z"/>
			<path fill="#486E77" d="M290.5,644.7H170.9c-3.1,0-5.5,2.5-5.5,5.5v191.3c0,3.1,2.5,5.5,5.5,5.5h119.6c3.1,0,5.5-2.5,5.5-5.5
				V650.2C296.1,647.2,293.6,644.7,290.5,644.7z"/>
			<rect x="181.6" y="662.1" fill="#BECB35" width="98.2" height="66.8"/>
			<path fill="#253338" d="M285.5,621.1H176c-1.8,0-3.2,1.4-3.2,3.2c0,1.8,1.4,3.2,3.2,3.2h109.6c1.8,0,3.2-1.4,3.2-3.2
				C288.7,622.5,287.3,621.1,285.5,621.1z"/>
			<g>
				<path fill="#F5F4DF" d="M206.5,743.3H186c-2.4,0-4.4,2-4.4,4.4v9.7c0,2.4,2,4.4,4.4,4.4h20.5c2.4,0,4.4-2,4.4-4.4v-9.7
					C210.9,745.3,209,743.3,206.5,743.3z"/>
				<path fill="#F5F4DF" d="M241,743.3h-20.5c-2.4,0-4.4,2-4.4,4.4v9.7c0,2.4,2,4.4,4.4,4.4H241c2.4,0,4.4-2,4.4-4.4v-9.7
					C245.4,745.3,243.4,743.3,241,743.3z"/>
				<path fill="#F5F4DF" d="M275.4,743.3h-20.5c-2.4,0-4.4,2-4.4,4.4v9.7c0,2.4,2,4.4,4.4,4.4h20.5c2.4,0,4.4-2,4.4-4.4v-9.7
					C279.8,745.3,277.9,743.3,275.4,743.3z"/>
				<path fill="#F5F4DF" d="M206.5,767H186c-2.4,0-4.4,2-4.4,4.4v9.7c0,2.4,2,4.4,4.4,4.4h20.5c2.4,0,4.4-2,4.4-4.4v-9.7
					C210.9,769,209,767,206.5,767z"/>
				<path fill="#F5F4DF" d="M241,767h-20.5c-2.4,0-4.4,2-4.4,4.4v9.7c0,2.4,2,4.4,4.4,4.4H241c2.4,0,4.4-2,4.4-4.4v-9.7
					C245.4,769,243.4,767,241,767z"/>
				<path fill="#F5F4DF" d="M275.4,767h-20.5c-2.4,0-4.4,2-4.4,4.4v9.7c0,2.4,2,4.4,4.4,4.4h20.5c2.4,0,4.4-2,4.4-4.4v-9.7
					C279.8,769,277.9,767,275.4,767z"/>
				<path fill="#F5F4DF" d="M206.5,790.8H186c-2.4,0-4.4,2-4.4,4.4v9.7c0,2.4,2,4.4,4.4,4.4h20.5c2.4,0,4.4-2,4.4-4.4v-9.7
					C210.9,792.8,209,790.8,206.5,790.8z"/>
				<path fill="#F5F4DF" d="M241,790.8h-20.5c-2.4,0-4.4,2-4.4,4.4v9.7c0,2.4,2,4.4,4.4,4.4H241c2.4,0,4.4-2,4.4-4.4v-9.7
					C245.4,792.8,243.4,790.8,241,790.8z"/>
				<path fill="#F5F4DF" d="M275.4,790.8h-20.5c-2.4,0-4.4,2-4.4,4.4v9.7c0,2.4,2,4.4,4.4,4.4h20.5c2.4,0,4.4-2,4.4-4.4v-9.7
					C279.8,792.8,277.9,790.8,275.4,790.8z"/>
				<path fill="#7CC471" d="M206.5,814.6H186c-2.4,0-4.4,2-4.4,4.4v9.7c0,2.4,2,4.4,4.4,4.4h20.5c2.4,0,4.4-2,4.4-4.4V819
					C210.9,816.6,209,814.6,206.5,814.6z"/>
				<path fill="#FDD836" d="M241,814.6h-20.5c-2.4,0-4.4,2-4.4,4.4v9.7c0,2.4,2,4.4,4.4,4.4H241c2.4,0,4.4-2,4.4-4.4V819
					C245.4,816.6,243.4,814.6,241,814.6z"/>
				<path fill="#EE7064" d="M275.4,814.6h-20.5c-2.4,0-4.4,2-4.4,4.4v9.7c0,2.4,2,4.4,4.4,4.4h20.5c2.4,0,4.4-2,4.4-4.4V819
					C279.8,816.6,277.9,814.6,275.4,814.6z"/>
			</g>
			<g>
				<polygon fill="#253338" points="316,639.6 316,830.4 324.3,819.1 324.3,650.9 				"/>
				<path fill="#486E77" d="M326.4,653.7l-2.1-2.8v168.3l2.1-2.8c4.1-5.5,6.3-12.1,6.3-18.9V672.6
					C332.7,665.8,330.5,659.1,326.4,653.7z"/>
			</g>
		</g>
		<g>
			<polygon fill="#F2F2F2" points="273,541.7 265.9,535.4 258.8,541.7 251.7,535.4 244.6,541.7 237.5,535.4 230.4,541.7 
				223.3,535.4 216.1,541.7 209,535.4 201.9,541.7 194.8,535.4 187.7,541.7 180.6,535.4 180.6,627.4 279.8,627.4 279.8,535.7 			"/>
		</g>
		<g>
			<g>
				<path fill="#354A5E" d="M268.7,553.5h-77c-1.1,0-2-0.9-2-2s0.9-2,2-2h77c1.1,0,2,0.9,2,2S269.8,553.5,268.7,553.5z"/>
			</g>
			<g>
				<path fill="#354A5E" d="M268.7,564.5h-77c-1.1,0-2-0.9-2-2s0.9-2,2-2h77c1.1,0,2,0.9,2,2S269.8,564.5,268.7,564.5z"/>
			</g>
			<g>
				<path fill="#354A5E" d="M268.7,575.5h-77c-1.1,0-2-0.9-2-2s0.9-2,2-2h77c1.1,0,2,0.9,2,2S269.8,575.5,268.7,575.5z"/>
			</g>
			<g>
				<path fill="#354A5E" d="M268.7,586.5h-77c-1.1,0-2-0.9-2-2s0.9-2,2-2h77c1.1,0,2,0.9,2,2S269.8,586.5,268.7,586.5z"/>
			</g>
			<g>
				<path fill="#354A5E" d="M268.7,597.5h-77c-1.1,0-2-0.9-2-2s0.9-2,2-2h77c1.1,0,2,0.9,2,2S269.8,597.5,268.7,597.5z"/>
			</g>
			<g>
				<path fill="#354A5E" d="M268.7,608.5h-77c-1.1,0-2-0.9-2-2s0.9-2,2-2h77c1.1,0,2,0.9,2,2S269.8,608.5,268.7,608.5z"/>
			</g>
			<g>
				<path fill="#354A5E" d="M233.3,619.5h-41.6c-1.1,0-2-0.9-2-2s0.9-2,2-2h41.6c1.1,0,2,0.9,2,2S234.4,619.5,233.3,619.5z"/>
			</g>
		</g>
	</g>
	<g>
		<g>
			<path fill="#969171" d="M1104.2,132.2h-36.6c-4.4,0-7.9,3.5-7.9,7.9v17.4c0,4.4,3.5,7.9,7.9,7.9h36.6c4.4,0,7.9-3.5,7.9-7.9V140
				C1112.1,135.7,1108.6,132.2,1104.2,132.2z"/>
			<path fill="#969171" d="M1165.7,132.2h-36.6c-4.4,0-7.9,3.5-7.9,7.9v17.4c0,4.4,3.5,7.9,7.9,7.9h36.6c4.4,0,7.9-3.5,7.9-7.9V140
				C1173.6,135.7,1170.1,132.2,1165.7,132.2z"/>
			<path fill="#969171" d="M1227.3,132.2h-36.6c-4.4,0-7.9,3.5-7.9,7.9v17.4c0,4.4,3.5,7.9,7.9,7.9h36.6c4.4,0,7.9-3.5,7.9-7.9V140
				C1235.2,135.7,1231.6,132.2,1227.3,132.2z"/>
			<path fill="#969171" d="M1104.2,174.6h-36.6c-4.4,0-7.9,3.5-7.9,7.9v17.4c0,4.4,3.5,7.9,7.9,7.9h36.6c4.4,0,7.9-3.5,7.9-7.9
				v-17.4C1112.1,178.1,1108.6,174.6,1104.2,174.6z"/>
			<path fill="#969171" d="M1165.7,174.6h-36.6c-4.4,0-7.9,3.5-7.9,7.9v17.4c0,4.4,3.5,7.9,7.9,7.9h36.6c4.4,0,7.9-3.5,7.9-7.9
				v-17.4C1173.6,178.1,1170.1,174.6,1165.7,174.6z"/>
			<path fill="#969171" d="M1227.3,174.6h-36.6c-4.4,0-7.9,3.5-7.9,7.9v17.4c0,4.4,3.5,7.9,7.9,7.9h36.6c4.4,0,7.9-3.5,7.9-7.9
				v-17.4C1235.2,178.1,1231.6,174.6,1227.3,174.6z"/>
			<path fill="#969171" d="M1104.2,217.1h-36.6c-4.4,0-7.9,3.5-7.9,7.9v17.4c0,4.4,3.5,7.9,7.9,7.9h36.6c4.4,0,7.9-3.5,7.9-7.9V225
				C1112.1,220.6,1108.6,217.1,1104.2,217.1z"/>
			<path fill="#969171" d="M1165.7,217.1h-36.6c-4.4,0-7.9,3.5-7.9,7.9v17.4c0,4.4,3.5,7.9,7.9,7.9h36.6c4.4,0,7.9-3.5,7.9-7.9V225
				C1173.6,220.6,1170.1,217.1,1165.7,217.1z"/>
			<path fill="#969171" d="M1227.3,217.1h-36.6c-4.4,0-7.9,3.5-7.9,7.9v17.4c0,4.4,3.5,7.9,7.9,7.9h36.6c4.4,0,7.9-3.5,7.9-7.9V225
				C1235.2,220.6,1231.6,217.1,1227.3,217.1z"/>
			<path fill="#5B994E" d="M1104.2,259.5h-36.6c-4.4,0-7.9,3.5-7.9,7.9v17.4c0,4.4,3.5,7.9,7.9,7.9h36.6c4.4,0,7.9-3.5,7.9-7.9
				v-17.4C1112.1,263.1,1108.6,259.5,1104.2,259.5z"/>
			<path fill="#E4B922" d="M1165.7,259.5h-36.6c-4.4,0-7.9,3.5-7.9,7.9v17.4c0,4.4,3.5,7.9,7.9,7.9h36.6c4.4,0,7.9-3.5,7.9-7.9
				v-17.4C1173.6,263.1,1170.1,259.5,1165.7,259.5z"/>
			<path fill="#D3463C" d="M1227.3,259.5h-36.6c-4.4,0-7.9,3.5-7.9,7.9v17.4c0,4.4,3.5,7.9,7.9,7.9h36.6c4.4,0,7.9-3.5,7.9-7.9
				v-17.4C1235.2,263.1,1231.6,259.5,1227.3,259.5z"/>
		</g>
		<g>
			<path fill="#C1BC99" d="M1104.2,127.5h-36.6c-4.4,0-7.9,3.5-7.9,7.9v17.4c0,4.4,3.5,7.9,7.9,7.9h36.6c4.4,0,7.9-3.5,7.9-7.9
				v-17.4C1112.1,131,1108.6,127.5,1104.2,127.5z"/>
			<path fill="#C1BC99" d="M1165.7,127.5h-36.6c-4.4,0-7.9,3.5-7.9,7.9v17.4c0,4.4,3.5,7.9,7.9,7.9h36.6c4.4,0,7.9-3.5,7.9-7.9
				v-17.4C1173.6,131,1170.1,127.5,1165.7,127.5z"/>
			<path fill="#C1BC99" d="M1227.3,127.5h-36.6c-4.4,0-7.9,3.5-7.9,7.9v17.4c0,4.4,3.5,7.9,7.9,7.9h36.6c4.4,0,7.9-3.5,7.9-7.9
				v-17.4C1235.2,131,1231.6,127.5,1227.3,127.5z"/>
			<path fill="#C1BC99" d="M1104.2,170h-36.6c-4.4,0-7.9,3.5-7.9,7.9v17.4c0,4.4,3.5,7.9,7.9,7.9h36.6c4.4,0,7.9-3.5,7.9-7.9v-17.4
				C1112.1,173.5,1108.6,170,1104.2,170z"/>
			<path fill="#C1BC99" d="M1165.7,170h-36.6c-4.4,0-7.9,3.5-7.9,7.9v17.4c0,4.4,3.5,7.9,7.9,7.9h36.6c4.4,0,7.9-3.5,7.9-7.9v-17.4
				C1173.6,173.5,1170.1,170,1165.7,170z"/>
			<path fill="#C1BC99" d="M1227.3,170h-36.6c-4.4,0-7.9,3.5-7.9,7.9v17.4c0,4.4,3.5,7.9,7.9,7.9h36.6c4.4,0,7.9-3.5,7.9-7.9v-17.4
				C1235.2,173.5,1231.6,170,1227.3,170z"/>
			<path fill="#C1BC99" d="M1104.2,212.4h-36.6c-4.4,0-7.9,3.5-7.9,7.9v17.4c0,4.4,3.5,7.9,7.9,7.9h36.6c4.4,0,7.9-3.5,7.9-7.9
				v-17.4C1112.1,216,1108.6,212.4,1104.2,212.4z"/>
			<path fill="#C1BC99" d="M1165.7,212.4h-36.6c-4.4,0-7.9,3.5-7.9,7.9v17.4c0,4.4,3.5,7.9,7.9,7.9h36.6c4.4,0,7.9-3.5,7.9-7.9
				v-17.4C1173.6,216,1170.1,212.4,1165.7,212.4z"/>
			<path fill="#C1BC99" d="M1227.3,212.4h-36.6c-4.4,0-7.9,3.5-7.9,7.9v17.4c0,4.4,3.5,7.9,7.9,7.9h36.6c4.4,0,7.9-3.5,7.9-7.9
				v-17.4C1235.2,216,1231.6,212.4,1227.3,212.4z"/>
			<path fill="#7CC471" d="M1104.2,254.9h-36.6c-4.4,0-7.9,3.5-7.9,7.9v17.4c0,4.4,3.5,7.9,7.9,7.9h36.6c4.4,0,7.9-3.5,7.9-7.9
				v-17.4C1112.1,258.4,1108.6,254.9,1104.2,254.9z"/>
			<path fill="#FDD836" d="M1165.7,254.9h-36.6c-4.4,0-7.9,3.5-7.9,7.9v17.4c0,4.4,3.5,7.9,7.9,7.9h36.6c4.4,0,7.9-3.5,7.9-7.9
				v-17.4C1173.6,258.4,1170.1,254.9,1165.7,254.9z"/>
			<path fill="#EE7064" d="M1227.3,254.9h-36.6c-4.4,0-7.9,3.5-7.9,7.9v17.4c0,4.4,3.5,7.9,7.9,7.9h36.6c4.4,0,7.9-3.5,7.9-7.9
				v-17.4C1235.2,258.4,1231.6,254.9,1227.3,254.9z"/>
		</g>
		<g>
			<path fill="#FFCD85" d="M1179.4,334.1c-21.9,0-39.7,17.8-39.7,39.7c0,1.8,1.5,3.3,3.3,3.3h87.5v-43L1179.4,334.1z"/>
			<g>
				<path fill="#FFE0B1" d="M1241.5,204.4L1241.5,204.4c-6,6-6,15.6,0,21.6l17.5,17.5l-1.3,1.3l-26-26c-7.1-7.1-18.6-7.1-25.6,0
					s-7.1,18.6,0,25.6l26,26l-1.4,1.4l-32.2-32.2c-7.8-7.8-20.3-7.8-28.1,0v0c-7.8,7.8-7.8,20.3,0,28.1l32.2,32.2l-1.5,1.5
					l-60.8-60.8c-7.8-7.8-20.3-7.8-28.1,0c-7.8,7.8-7.8,20.3,0,28.1l60.8,60.8l10.1,10.1l24.4,24.4c28.5,28.5,74.8,28.5,103.3,0
					l4.4-4.4c28.5-28.5,28.5-74.8,0-103.3l-1.3-1.3l-33.2-33.2l-17.5-17.5C1257.2,198.4,1247.5,198.4,1241.5,204.4z"/>
				<path fill="#FFECD5" d="M1118.8,248.2c-4.7,4.7-4.7,12.4,0,17.2l3.2,3.2l17.2-17.2l-3.2-3.2
					C1131.2,243.5,1123.6,243.5,1118.8,248.2z"/>
			</g>
		</g>
	</g>
	<g>
		<g>
			<g>
				<polygon fill="#F2F2F2" points="595.9,907.1 612.5,921.7 629.1,907.1 645.6,921.7 662.2,907.1 678.8,921.7 695.3,907.1 
					711.9,921.7 728.4,907.1 745,921.7 761.6,907.1 778.1,921.7 794.7,907.1 811.3,921.7 811.3,585.6 580,585.6 580,921.1 				"/>
			</g>
			<rect x="603" y="617.7" fill="#58595B" width="185.3" height="10"/>
			<rect x="764.1" y="647" fill="#58595B" width="24.2" height="10"/>
			<rect x="764.1" y="676.3" fill="#58595B" width="24.2" height="10"/>
			<rect x="764.1" y="705.7" fill="#58595B" width="24.2" height="10"/>
			<rect x="764.1" y="735" fill="#58595B" width="24.2" height="10"/>
			<rect x="764.1" y="764.3" fill="#58595B" width="24.2" height="10"/>
			<rect x="764.1" y="793.7" fill="#58595B" width="24.2" height="10"/>
			<rect x="764.1" y="823" fill="#58595B" width="24.2" height="10"/>
			<rect x="603" y="647" fill="#58595B" width="94" height="10"/>
			<rect x="603" y="676.3" fill="#58595B" width="107.2" height="10"/>
			<rect x="603" y="705.7" fill="#58595B" width="69.3" height="10"/>
			<rect x="603" y="735" fill="#58595B" width="87.7" height="10"/>
			<rect x="603" y="764.3" fill="#58595B" width="72.7" height="10"/>
			<rect x="603" y="793.7" fill="#58595B" width="90.6" height="10"/>
			<rect x="603" y="823" fill="#58595B" width="83.2" height="10"/>
		</g>
		<g>
			<path fill="#368DCC" d="M706.4,883.3c-5.4,2.4-9.1-0.3-13.7-2.8c-2.7-1.5-5.6-1.3-8.1,0.3c-2.5,1.5-5.1,8.1-9,5
				c-1.8-1.4-2.7-4.4-3.7-6.4c-0.9-1.9-2.3-3.6-3.8-5.1c-4.6-5-12-5.9-17.7-2.4c-2.9,1.8-4.2,5-4.8,8.3c-0.3,1.8-0.4,3.7-0.8,5.5
				c-0.7,3.6-3.4,4.6-6.2,4.1c3.9-7.9,6.2-21.3-3.1-24.2c-4-1.2-8.3,2.4-9.5,5.9c-2.1,5.9-1,11.9,2.4,17.1c0.9,1.3,1.9,2.4,3,3.4
				c-3,3.8-7.4,6.9-11.7,3.6c-2.8-2.2-4.8-6.3-6.4-10c6.7-7.7,11.3-18.4,9.9-28.5c-0.5-3.6-2.5-8.5-6.9-8.7
				c-5.3-0.2-8.7,4.2-10.5,8.8c-3.5,9.2-1.8,18.5,1.7,27.2c-0.2,0.2-0.5,0.5-0.7,0.7c-2.1,2,0.6,5.1,2.9,4c0.8,1.7,1.7,3.3,2.6,4.9
				c2.5,4.4,5.8,7.4,10.9,8.1c5.1,0.7,9.7-3.9,12.6-7.7c6,1.9,12.6-0.8,14.1-8.6c0.6-3.2,0.3-6.5,2.6-9c2.7-3,7.4-2,10.4-0.2
				c5.8,3.5,5.7,11.6,11.9,14.8c2.3,1.2,4.9,0.7,7-0.6c2.5-1.4,4.3-6.6,7.8-6c3.6,0.6,6.4,3.9,10.2,4.6c3.2,0.6,6.3-0.3,9.2-1.6
				C711.8,886.3,709.3,882,706.4,883.3z M610.1,859.7c0.4-1.3,1-2.6,1.7-3.7c1.6-2.9,5.5-2.4,6.3,0.8c1.9,7.7-2,16.6-7,23.2
				c-1.5-4.2-2.3-8.5-2.3-13C608.9,864.4,609.4,862,610.1,859.7z M632.4,870.8c3.1,0.3,4.6,1.7,4.4,4.3c0,1.1,0,2.2-0.1,3.2
				c-0.2,3.2-1.3,6.3-2.6,9.1C630,883.8,627.3,874.6,632.4,870.8z"/>
			<path fill="#368DCC" d="M685.7,872.8c3.2,0,3.2-5,0-5C682.4,867.8,682.4,872.8,685.7,872.8z"/>
		</g>
		<g>
			<path fill="#CFDAE0" d="M846,590.9c-3.2-1.4-6.9,0-8.4,3.1l-14.9,32.8l11.5,5.2l14.9-32.8C850.6,596.1,849.2,592.4,846,590.9z"/>
			<g>
				
					<rect x="782.5" y="700.2" transform="matrix(0.9099 0.4148 -0.4148 0.9099 364.3841 -265.5704)" fill="#EFF1F3" width="22" height="11.7"/>
				<path fill="#90A4AE" d="M836.6,638c1-2.2,0-4.8-2.2-5.8l-12.1-5.5c-2.2-1-4.8,0-5.8,2.2l-30.7,67.3l20,9.1L836.6,638z"/>
				
					<rect x="751.2" y="705" transform="matrix(0.9099 0.4148 -0.4148 0.9099 390.0603 -246.3874)" fill="#37474F" width="22" height="139.3"/>
				<path fill="#91A4AC" d="M723.3,833.5l-3.7,8c-6.9,15.1-10.2,31.5-9.8,48.1l0,0c12.8-10.6,23-23.9,29.9-39l3.7-8L723.3,833.5z"/>
			</g>
		</g>
	</g>
	<g>
		<path fill="#616262" d="M1072.8,628.8c-11.9,0-21.6,9.7-21.6,21.6v15.3h115.5v-36.9H1072.8z"/>
		<path fill="#4C4C4D" d="M1072.9,635.7c-8.3,0-15,6.7-15,15c0,8.3,6.7,15,15,15h100.5v-30.1H1072.9z"/>
		<g>
			<g>
				<path fill="#F9C12E" d="M1236,777.9c8.2,0,14.8-6.6,14.8-14.8V578c0-8.2-6.6-14.8-14.8-14.8H1225v214.7H1236z"/>
				<rect x="1194.6" y="563.1" fill="#1A1A1A" width="30.4" height="214.7"/>
				<path fill="#F9C12E" d="M1118.7,777.9h75.8V563.1h-75.8c-8.2,0-14.8,6.6-14.8,14.8v185.1
					C1103.9,771.2,1110.6,777.9,1118.7,777.9z"/>
			</g>
			<path fill="#FFFFFF" d="M1180.5,708.6h2.9c0.9,0,1.6-0.7,1.6-1.6V578c0-0.9-0.7-1.6-1.6-1.6h-2.9c-0.9,0-1.6,0.7-1.6,1.6v129
				C1178.9,707.9,1179.6,708.6,1180.5,708.6z"/>
			<path fill="#FFFFFF" d="M1167.1,680h2.9c0.9,0,1.6-0.7,1.6-1.6V578c0-0.9-0.7-1.6-1.6-1.6h-2.9c-0.9,0-1.6,0.7-1.6,1.6v100.4
				C1165.5,679.3,1166.3,680,1167.1,680z"/>
			<path fill="#FFFFFF" d="M1154.4,648.9h2.9c0.9,0,1.6-0.7,1.6-1.6V578c0-0.9-0.7-1.6-1.6-1.6h-2.9c-0.9,0-1.6,0.7-1.6,1.6v69.3
				C1152.8,648.2,1153.5,648.9,1154.4,648.9z"/>
		</g>
		<path fill="#616262" d="M1252.2,665.8h-201v211.6c0,6.8,5.5,12.3,12.3,12.3h188.7c16.6,0,30-13.4,30-30V695.8
			C1282.2,679.2,1268.7,665.8,1252.2,665.8z"/>
		<g>
			<path fill="#A7A9AC" d="M1058.9,687.8c0-1.4-1.1-2.5-2.5-2.5h-5.3v5h5.3C1057.8,690.3,1058.9,689.2,1058.9,687.8z"/>
			<path fill="#A7A9AC" d="M1149.8,690.3h10.9c1.4,0,2.5-1.1,2.5-2.5s-1.1-2.5-2.5-2.5h-10.9c-1.4,0-2.5,1.1-2.5,2.5
				S1148.4,690.3,1149.8,690.3z"/>
			<path fill="#A7A9AC" d="M1080.3,690.3h10.9c1.4,0,2.5-1.1,2.5-2.5s-1.1-2.5-2.5-2.5h-10.9c-1.4,0-2.5,1.1-2.5,2.5
				S1078.9,690.3,1080.3,690.3z"/>
			<path fill="#A7A9AC" d="M1160.8,865.2h-10.9c-1.4,0-2.5,1.1-2.5,2.5s1.1,2.5,2.5,2.5h10.9c1.4,0,2.5-1.1,2.5-2.5
				S1162.1,865.2,1160.8,865.2z"/>
			<path fill="#A7A9AC" d="M1126,865.2h-10.9c-1.4,0-2.5,1.1-2.5,2.5s1.1,2.5,2.5,2.5h10.9c1.4,0,2.5-1.1,2.5-2.5
				S1127.4,865.2,1126,865.2z"/>
			<path fill="#A7A9AC" d="M1115,690.3h10.9c1.4,0,2.5-1.1,2.5-2.5s-1.1-2.5-2.5-2.5H1115c-1.4,0-2.5,1.1-2.5,2.5
				S1113.7,690.3,1115,690.3z"/>
			<path fill="#A7A9AC" d="M1184.6,690.3h10.9c1.4,0,2.5-1.1,2.5-2.5s-1.1-2.5-2.5-2.5h-10.9c-1.4,0-2.5,1.1-2.5,2.5
				S1183.2,690.3,1184.6,690.3z"/>
			<path fill="#A7A9AC" d="M1091.2,865.2h-10.9c-1.4,0-2.5,1.1-2.5,2.5s1.1,2.5,2.5,2.5h10.9c1.4,0,2.5-1.1,2.5-2.5
				S1092.6,865.2,1091.2,865.2z"/>
			<path fill="#A7A9AC" d="M1260.2,787.1c-1.4,0-2.5,1.1-2.5,2.5v10.9c0,1.4,1.1,2.5,2.5,2.5s2.5-1.1,2.5-2.5v-10.9
				C1262.7,788.2,1261.5,787.1,1260.2,787.1z"/>
			<path fill="#A7A9AC" d="M1260.2,717.6c-1.4,0-2.5,1.1-2.5,2.5V731c0,1.4,1.1,2.5,2.5,2.5s2.5-1.1,2.5-2.5v-10.9
				C1262.7,718.7,1261.5,717.6,1260.2,717.6z"/>
			<path fill="#A7A9AC" d="M1260.2,752.4c-1.4,0-2.5,1.1-2.5,2.5v10.9c0,1.4,1.1,2.5,2.5,2.5s2.5-1.1,2.5-2.5v-10.9
				C1262.7,753.5,1261.5,752.4,1260.2,752.4z"/>
			<path fill="#A7A9AC" d="M1260.2,821.9c-1.4,0-2.5,1.1-2.5,2.5v10.9c0,1.4,1.1,2.5,2.5,2.5s2.5-1.1,2.5-2.5v-10.9
				C1262.7,823,1261.5,821.9,1260.2,821.9z"/>
			<path fill="#A7A9AC" d="M1195.5,865.2h-10.9c-1.4,0-2.5,1.1-2.5,2.5s1.1,2.5,2.5,2.5h10.9c1.4,0,2.5-1.1,2.5-2.5
				S1196.9,865.2,1195.5,865.2z"/>
			<path fill="#A7A9AC" d="M1254.8,685.8c-1.3-0.4-2.7,0.4-3.1,1.7c-0.4,1.3,0.4,2.7,1.7,3.1c2.6,0.8,4.3,2.9,4.3,5.2v0.5
				c0,1.4,1.1,2.5,2.5,2.5s2.5-1.1,2.5-2.5v-0.5C1262.7,691.2,1259.5,687.2,1254.8,685.8z"/>
			<path fill="#A7A9AC" d="M1260.2,856.6c-1.4,0-2.5,1.1-2.5,2.5v0.5c0,2.3-1.7,4.4-4.3,5.2c-1.3,0.4-2.1,1.8-1.7,3.1
				c0.3,1.1,1.3,1.8,2.4,1.8c0.2,0,0.5,0,0.7-0.1c4.7-1.4,7.9-5.4,7.9-10v-0.5C1262.7,857.8,1261.5,856.6,1260.2,856.6z"/>
			<path fill="#A7A9AC" d="M1219.3,690.3h10.9c1.4,0,2.5-1.1,2.5-2.5s-1.1-2.5-2.5-2.5h-10.9c-1.4,0-2.5,1.1-2.5,2.5
				S1217.9,690.3,1219.3,690.3z"/>
			<path fill="#A7A9AC" d="M1230.3,865.2h-10.9c-1.4,0-2.5,1.1-2.5,2.5s1.1,2.5,2.5,2.5h10.9c1.4,0,2.5-1.1,2.5-2.5
				S1231.7,865.2,1230.3,865.2z"/>
			<path fill="#A7A9AC" d="M1056.4,870.2c1.4,0,2.5-1.1,2.5-2.5s-1.1-2.5-2.5-2.5h-5.3v5H1056.4z"/>
		</g>
		<path fill="#4C4C4D" d="M1281.6,757h-31.9c-11.5,0-20.8,9.3-20.8,20.8l0,0c0,11.5,9.3,20.8,20.8,20.8h31.9c2.7,0,4.9-2.2,4.9-4.9
			v-31.8C1286.4,759.1,1284.2,757,1281.6,757z"/>
		<circle fill="#D1D3D4" cx="1251.5" cy="777.9" r="12.8"/>
	</g>
</g>
</svg>
